<mxfile host="app.diagrams.net" modified="2020-11-18T18:00:59.013Z" agent="5.0 (Macintosh; Intel Mac OS X 10_15_7) AppleWebKit/537.36 (KHTML, like Gecko) Chrome/86.0.4240.198 Safari/537.36" etag="oA88pXW0hI01-OrBvLiJ" version="13.9.9" type="github">
  <diagram id="vqAz7mFe_bX8_XPS133d" name="Page-1">
    <mxGraphModel dx="1426" dy="794" grid="1" gridSize="10" guides="1" tooltips="1" connect="1" arrows="1" fold="1" page="1" pageScale="1" pageWidth="850" pageHeight="1100" math="0" shadow="0">
      <root>
        <mxCell id="0" />
        <mxCell id="1" parent="0" />
        <mxCell id="3avs3_zd8cKEyKvQoN6--27" value="" style="whiteSpace=wrap;html=1;aspect=fixed;" parent="1" vertex="1">
          <mxGeometry x="40" y="110" width="760" height="760" as="geometry" />
        </mxCell>
        <mxCell id="lcX1lfoyKaqcj_of0QZ5-1" value="&lt;font style=&quot;font-size: 32px&quot;&gt;pets-r-us&lt;/font&gt;" style="rounded=0;whiteSpace=wrap;html=1;align=left;" parent="1" vertex="1">
          <mxGeometry x="40" y="40" width="760" height="40" as="geometry" />
        </mxCell>
        <mxCell id="lcX1lfoyKaqcj_of0QZ5-3" value="&lt;font color=&quot;#ff0000&quot;&gt;This will be an image carousel for marketing purposes.&lt;/font&gt;" style="whiteSpace=wrap;html=1;aspect=fixed;" parent="1" vertex="1">
          <mxGeometry x="220" y="160" width="400" height="400" as="geometry" />
        </mxCell>
        <mxCell id="lcX1lfoyKaqcj_of0QZ5-4" value="" style="shape=image;html=1;verticalAlign=top;verticalLabelPosition=bottom;labelBackgroundColor=#ffffff;imageAspect=0;aspect=fixed;image=https://cdn4.iconfinder.com/data/icons/common-toolbar/36/Cut-2-128.png" parent="1" vertex="1">
          <mxGeometry x="119" y="682" width="128" height="128" as="geometry" />
        </mxCell>
        <mxCell id="lcX1lfoyKaqcj_of0QZ5-5" value="" style="shape=image;html=1;verticalAlign=top;verticalLabelPosition=bottom;labelBackgroundColor=#ffffff;imageAspect=0;aspect=fixed;image=https://cdn4.iconfinder.com/data/icons/general-office/91/General_Office_06-128.png" parent="1" vertex="1">
          <mxGeometry x="356" y="680" width="128" height="128" as="geometry" />
        </mxCell>
        <mxCell id="lcX1lfoyKaqcj_of0QZ5-6" value="" style="html=1;verticalLabelPosition=bottom;align=center;labelBackgroundColor=#ffffff;verticalAlign=top;strokeWidth=2;strokeColor=#0080F0;shadow=0;dashed=0;shape=mxgraph.ios7.icons.home;" parent="1" vertex="1">
          <mxGeometry x="609" y="691" width="110" height="110" as="geometry" />
        </mxCell>
        <mxCell id="lcX1lfoyKaqcj_of0QZ5-8" value="&lt;font style=&quot;font-size: 30px&quot;&gt;Appointment Services&lt;/font&gt;" style="text;html=1;align=center;verticalAlign=middle;resizable=0;points=[];autosize=1;" parent="1" vertex="1">
          <mxGeometry x="270" y="610" width="310" height="30" as="geometry" />
        </mxCell>
        <mxCell id="lcX1lfoyKaqcj_of0QZ5-9" value="&lt;font style=&quot;font-size: 20px&quot;&gt;&lt;u&gt;Grooming&lt;/u&gt;&lt;/font&gt;" style="text;html=1;align=center;verticalAlign=middle;resizable=0;points=[];autosize=1;" parent="1" vertex="1">
          <mxGeometry x="119" y="810" width="100" height="20" as="geometry" />
        </mxCell>
        <mxCell id="lcX1lfoyKaqcj_of0QZ5-10" value="&lt;font style=&quot;font-size: 20px&quot;&gt;&lt;u&gt;Training&lt;/u&gt;&lt;/font&gt;" style="text;html=1;align=center;verticalAlign=middle;resizable=0;points=[];autosize=1;" parent="1" vertex="1">
          <mxGeometry x="374" y="810" width="90" height="20" as="geometry" />
        </mxCell>
        <mxCell id="lcX1lfoyKaqcj_of0QZ5-11" value="&lt;font style=&quot;font-size: 20px&quot;&gt;&lt;u&gt;Boarding&lt;/u&gt;&lt;/font&gt;" style="text;html=1;align=center;verticalAlign=middle;resizable=0;points=[];autosize=1;" parent="1" vertex="1">
          <mxGeometry x="614" y="810" width="100" height="20" as="geometry" />
        </mxCell>
        <mxCell id="3avs3_zd8cKEyKvQoN6--6" value="" style="shape=image;html=1;verticalAlign=top;verticalLabelPosition=bottom;labelBackgroundColor=#ffffff;imageAspect=0;aspect=fixed;image=https://cdn3.iconfinder.com/data/icons/fugue/icon_shadowless/user-silhouette.png" parent="1" vertex="1">
          <mxGeometry x="684" y="45" width="30" height="30" as="geometry" />
        </mxCell>
        <mxCell id="3avs3_zd8cKEyKvQoN6--7" value="" style="html=1;verticalLabelPosition=bottom;align=center;labelBackgroundColor=#ffffff;verticalAlign=top;strokeWidth=2;shadow=0;dashed=0;shape=mxgraph.ios7.icons.shopping_cart;" parent="1" vertex="1">
          <mxGeometry x="757" y="47.25" width="30" height="25.5" as="geometry" />
        </mxCell>
        <mxCell id="3avs3_zd8cKEyKvQoN6--8" value="" style="html=1;verticalLabelPosition=bottom;labelBackgroundColor=#ffffff;verticalAlign=top;shadow=0;dashed=0;strokeWidth=2;shape=mxgraph.ios7.misc.down;" parent="1" vertex="1">
          <mxGeometry x="714" y="57" width="12" height="6" as="geometry" />
        </mxCell>
        <mxCell id="3avs3_zd8cKEyKvQoN6--9" value="" style="endArrow=none;html=1;" parent="1" edge="1">
          <mxGeometry width="50" height="50" relative="1" as="geometry">
            <mxPoint x="743" y="80" as="sourcePoint" />
            <mxPoint x="743" y="40" as="targetPoint" />
          </mxGeometry>
        </mxCell>
        <mxCell id="3avs3_zd8cKEyKvQoN6--16" value="" style="triangle;whiteSpace=wrap;html=1;strokeColor=#000000;" parent="1" vertex="1">
          <mxGeometry x="649" y="340" width="30" height="40" as="geometry" />
        </mxCell>
        <mxCell id="3avs3_zd8cKEyKvQoN6--17" value="" style="triangle;whiteSpace=wrap;html=1;strokeColor=#000000;direction=west;" parent="1" vertex="1">
          <mxGeometry x="160" y="340" width="30" height="40" as="geometry" />
        </mxCell>
        <mxCell id="3avs3_zd8cKEyKvQoN6--18" value="" style="ellipse;whiteSpace=wrap;html=1;aspect=fixed;strokeColor=#000000;" parent="1" vertex="1">
          <mxGeometry x="394" y="540" width="10" height="10" as="geometry" />
        </mxCell>
        <mxCell id="3avs3_zd8cKEyKvQoN6--19" value="" style="ellipse;whiteSpace=wrap;html=1;aspect=fixed;strokeColor=#000000;" parent="1" vertex="1">
          <mxGeometry x="406" y="540" width="10" height="10" as="geometry" />
        </mxCell>
        <mxCell id="3avs3_zd8cKEyKvQoN6--20" value="" style="ellipse;whiteSpace=wrap;html=1;aspect=fixed;strokeColor=#000000;" parent="1" vertex="1">
          <mxGeometry x="418" y="540" width="10" height="10" as="geometry" />
        </mxCell>
        <mxCell id="3avs3_zd8cKEyKvQoN6--23" value="" style="ellipse;whiteSpace=wrap;html=1;aspect=fixed;strokeColor=#000000;" parent="1" vertex="1">
          <mxGeometry x="430" y="540" width="10" height="10" as="geometry" />
        </mxCell>
        <mxCell id="3avs3_zd8cKEyKvQoN6--24" value="" style="ellipse;whiteSpace=wrap;html=1;aspect=fixed;strokeColor=#000000;" parent="1" vertex="1">
          <mxGeometry x="442" y="540" width="10" height="10" as="geometry" />
        </mxCell>
        <mxCell id="3avs3_zd8cKEyKvQoN6--38" value="&lt;font color=&quot;#ff0000&quot;&gt;On hover these buttons will be dropdown lists of clickable events. For example Appointments &amp;gt; Grooming, Boarding, etc.&lt;/font&gt;" style="text;html=1;strokeColor=none;fillColor=none;align=left;verticalAlign=middle;whiteSpace=wrap;rounded=0;" parent="1" vertex="1">
          <mxGeometry x="70" y="130" width="700" height="20" as="geometry" />
        </mxCell>
        <mxCell id="3avs3_zd8cKEyKvQoN6--41" value="" style="endArrow=classic;html=1;strokeColor=#FF0000;" parent="1" edge="1">
          <mxGeometry width="50" height="50" relative="1" as="geometry">
            <mxPoint x="700" y="130" as="sourcePoint" />
            <mxPoint x="719" y="110" as="targetPoint" />
          </mxGeometry>
        </mxCell>
        <mxCell id="3avs3_zd8cKEyKvQoN6--42" value="" style="endArrow=classic;html=1;strokeColor=#FF0000;" parent="1" edge="1">
          <mxGeometry width="50" height="50" relative="1" as="geometry">
            <mxPoint x="410" y="130" as="sourcePoint" />
            <mxPoint x="410" y="115" as="targetPoint" />
          </mxGeometry>
        </mxCell>
        <mxCell id="3avs3_zd8cKEyKvQoN6--43" value="Explanatory text in &lt;font color=&quot;#ff0000&quot;&gt;red&lt;/font&gt;" style="text;html=1;align=left;verticalAlign=middle;resizable=0;points=[];autosize=1;" parent="1" vertex="1">
          <mxGeometry x="40" y="10" width="130" height="20" as="geometry" />
        </mxCell>
        <mxCell id="3avs3_zd8cKEyKvQoN6--45" value="" style="endArrow=classic;html=1;strokeColor=#FF0000;exitX=0.151;exitY=-0.2;exitDx=0;exitDy=0;exitPerimeter=0;" parent="1" source="3avs3_zd8cKEyKvQoN6--38" edge="1">
          <mxGeometry width="50" height="50" relative="1" as="geometry">
            <mxPoint x="70" y="165" as="sourcePoint" />
            <mxPoint x="130" y="115" as="targetPoint" />
          </mxGeometry>
        </mxCell>
        <mxCell id="3avs3_zd8cKEyKvQoN6--46" value="&lt;font color=&quot;#ff0000&quot;&gt;These links will take users to appointment scheduling&lt;/font&gt;" style="text;html=1;align=left;verticalAlign=middle;resizable=0;points=[];autosize=1;" parent="1" vertex="1">
          <mxGeometry x="275" y="920" width="300" height="20" as="geometry" />
        </mxCell>
        <mxCell id="3avs3_zd8cKEyKvQoN6--47" value="" style="endArrow=classic;html=1;strokeColor=#FF0000;" parent="1" edge="1">
          <mxGeometry width="50" height="50" relative="1" as="geometry">
            <mxPoint x="559" y="920" as="sourcePoint" />
            <mxPoint x="610" y="870" as="targetPoint" />
          </mxGeometry>
        </mxCell>
        <mxCell id="3avs3_zd8cKEyKvQoN6--48" value="" style="endArrow=classic;html=1;strokeColor=#FF0000;" parent="1" target="3avs3_zd8cKEyKvQoN6--27" edge="1">
          <mxGeometry width="50" height="50" relative="1" as="geometry">
            <mxPoint x="430" y="910" as="sourcePoint" />
            <mxPoint x="480" y="860" as="targetPoint" />
          </mxGeometry>
        </mxCell>
        <mxCell id="3avs3_zd8cKEyKvQoN6--49" value="" style="endArrow=classic;html=1;strokeColor=#FF0000;" parent="1" edge="1">
          <mxGeometry width="50" height="50" relative="1" as="geometry">
            <mxPoint x="300" y="910" as="sourcePoint" />
            <mxPoint x="250" y="880" as="targetPoint" />
          </mxGeometry>
        </mxCell>
      </root>
    </mxGraphModel>
  </diagram>
</mxfile>
